<mxfile host="app.diagrams.net" modified="2024-05-23T09:33:23.637Z" agent="Mozilla/5.0 (Windows NT 10.0; Win64; x64; rv:126.0) Gecko/20100101 Firefox/126.0" etag="a8T5fIBy0LIvIjlFXiUB" version="24.4.6" type="device">
  <diagram id="C5RBs43oDa-KdzZeNtuy" name="Page-1">
    <mxGraphModel dx="2289" dy="2407" grid="1" gridSize="10" guides="1" tooltips="1" connect="1" arrows="1" fold="1" page="1" pageScale="1" pageWidth="827" pageHeight="1169" math="0" shadow="0">
      <root>
        <mxCell id="WIyWlLk6GJQsqaUBKTNV-0" />
        <mxCell id="WIyWlLk6GJQsqaUBKTNV-1" parent="WIyWlLk6GJQsqaUBKTNV-0" />
        <mxCell id="1x-yw9I9YHsFiI4h4pNt-22" style="edgeStyle=orthogonalEdgeStyle;rounded=0;orthogonalLoop=1;jettySize=auto;html=1;" parent="WIyWlLk6GJQsqaUBKTNV-1" source="WIyWlLk6GJQsqaUBKTNV-3" target="WIyWlLk6GJQsqaUBKTNV-6" edge="1">
          <mxGeometry relative="1" as="geometry" />
        </mxCell>
        <mxCell id="WIyWlLk6GJQsqaUBKTNV-3" value="Algus" style="rounded=1;whiteSpace=wrap;html=1;fontSize=12;glass=0;strokeWidth=1;shadow=0;" parent="WIyWlLk6GJQsqaUBKTNV-1" vertex="1">
          <mxGeometry x="390" y="-410" width="120" height="40" as="geometry" />
        </mxCell>
        <mxCell id="1x-yw9I9YHsFiI4h4pNt-3" style="edgeStyle=orthogonalEdgeStyle;rounded=0;orthogonalLoop=1;jettySize=auto;html=1;" parent="WIyWlLk6GJQsqaUBKTNV-1" source="WIyWlLk6GJQsqaUBKTNV-6" target="WIyWlLk6GJQsqaUBKTNV-10" edge="1">
          <mxGeometry relative="1" as="geometry" />
        </mxCell>
        <mxCell id="1x-yw9I9YHsFiI4h4pNt-4" value="YES" style="edgeLabel;html=1;align=center;verticalAlign=middle;resizable=0;points=[];" parent="1x-yw9I9YHsFiI4h4pNt-3" vertex="1" connectable="0">
          <mxGeometry x="-0.52" relative="1" as="geometry">
            <mxPoint as="offset" />
          </mxGeometry>
        </mxCell>
        <mxCell id="1x-yw9I9YHsFiI4h4pNt-13" style="edgeStyle=orthogonalEdgeStyle;rounded=0;orthogonalLoop=1;jettySize=auto;html=1;entryX=0.5;entryY=0;entryDx=0;entryDy=0;" parent="WIyWlLk6GJQsqaUBKTNV-1" source="WIyWlLk6GJQsqaUBKTNV-6" target="1x-yw9I9YHsFiI4h4pNt-9" edge="1">
          <mxGeometry relative="1" as="geometry" />
        </mxCell>
        <mxCell id="1x-yw9I9YHsFiI4h4pNt-15" value="Ei" style="edgeLabel;html=1;align=center;verticalAlign=middle;resizable=0;points=[];" parent="1x-yw9I9YHsFiI4h4pNt-13" vertex="1" connectable="0">
          <mxGeometry x="-0.2915" y="-2" relative="1" as="geometry">
            <mxPoint as="offset" />
          </mxGeometry>
        </mxCell>
        <mxCell id="WIyWlLk6GJQsqaUBKTNV-6" value="Valid valuuta." style="rhombus;whiteSpace=wrap;html=1;shadow=0;fontFamily=Helvetica;fontSize=12;align=center;strokeWidth=1;spacing=6;spacingTop=-4;" parent="WIyWlLk6GJQsqaUBKTNV-1" vertex="1">
          <mxGeometry x="395" y="-230" width="110" height="100" as="geometry" />
        </mxCell>
        <mxCell id="1x-yw9I9YHsFiI4h4pNt-2" style="edgeStyle=orthogonalEdgeStyle;rounded=0;orthogonalLoop=1;jettySize=auto;html=1;" parent="WIyWlLk6GJQsqaUBKTNV-1" source="WIyWlLk6GJQsqaUBKTNV-10" target="spRGdN_NJIrc2kOm7W-H-16" edge="1">
          <mxGeometry relative="1" as="geometry" />
        </mxCell>
        <mxCell id="WIyWlLk6GJQsqaUBKTNV-10" value="Lisa mis summa Bitcoini soovid." style="rhombus;whiteSpace=wrap;html=1;shadow=0;fontFamily=Helvetica;fontSize=12;align=center;strokeWidth=1;spacing=6;spacingTop=-4;" parent="WIyWlLk6GJQsqaUBKTNV-1" vertex="1">
          <mxGeometry x="392" y="-50" width="116" height="100" as="geometry" />
        </mxCell>
        <mxCell id="1x-yw9I9YHsFiI4h4pNt-0" style="edgeStyle=orthogonalEdgeStyle;rounded=0;orthogonalLoop=1;jettySize=auto;html=1;" parent="WIyWlLk6GJQsqaUBKTNV-1" source="spRGdN_NJIrc2kOm7W-H-4" target="spRGdN_NJIrc2kOm7W-H-6" edge="1">
          <mxGeometry relative="1" as="geometry" />
        </mxCell>
        <mxCell id="spRGdN_NJIrc2kOm7W-H-4" value="Too praegune bitcoini hind valitud valuutas." style="rounded=1;whiteSpace=wrap;html=1;" parent="WIyWlLk6GJQsqaUBKTNV-1" vertex="1">
          <mxGeometry x="320" y="240" width="160" height="60" as="geometry" />
        </mxCell>
        <mxCell id="1x-yw9I9YHsFiI4h4pNt-1" style="edgeStyle=orthogonalEdgeStyle;rounded=0;orthogonalLoop=1;jettySize=auto;html=1;" parent="WIyWlLk6GJQsqaUBKTNV-1" source="spRGdN_NJIrc2kOm7W-H-6" target="spRGdN_NJIrc2kOm7W-H-8" edge="1">
          <mxGeometry relative="1" as="geometry" />
        </mxCell>
        <mxCell id="spRGdN_NJIrc2kOm7W-H-6" value="Nii mitu Bitcoini on pandud, siis sellele tuleb summa." style="rounded=1;whiteSpace=wrap;html=1;" parent="WIyWlLk6GJQsqaUBKTNV-1" vertex="1">
          <mxGeometry x="510" y="360" width="160" height="60" as="geometry" />
        </mxCell>
        <mxCell id="spRGdN_NJIrc2kOm7W-H-11" value="" style="edgeStyle=orthogonalEdgeStyle;rounded=0;orthogonalLoop=1;jettySize=auto;html=1;" parent="WIyWlLk6GJQsqaUBKTNV-1" source="spRGdN_NJIrc2kOm7W-H-8" target="spRGdN_NJIrc2kOm7W-H-10" edge="1">
          <mxGeometry relative="1" as="geometry" />
        </mxCell>
        <mxCell id="spRGdN_NJIrc2kOm7W-H-8" value="&lt;br&gt;Korruta bitcoini kogus selle hinnaga.&lt;div&gt;&lt;br/&gt;&lt;/div&gt;" style="rounded=1;whiteSpace=wrap;html=1;" parent="WIyWlLk6GJQsqaUBKTNV-1" vertex="1">
          <mxGeometry x="280" y="460" width="160" height="60" as="geometry" />
        </mxCell>
        <mxCell id="1x-yw9I9YHsFiI4h4pNt-21" style="edgeStyle=orthogonalEdgeStyle;rounded=0;orthogonalLoop=1;jettySize=auto;html=1;" parent="WIyWlLk6GJQsqaUBKTNV-1" source="spRGdN_NJIrc2kOm7W-H-10" target="1x-yw9I9YHsFiI4h4pNt-20" edge="1">
          <mxGeometry relative="1" as="geometry" />
        </mxCell>
        <mxCell id="spRGdN_NJIrc2kOm7W-H-10" value="Tuleb tulemus &quot;tulemuse&quot; kastis." style="rounded=1;whiteSpace=wrap;html=1;" parent="WIyWlLk6GJQsqaUBKTNV-1" vertex="1">
          <mxGeometry x="510" y="560" width="160" height="60" as="geometry" />
        </mxCell>
        <mxCell id="6B0Gjbu1un2UOq58j5sC-1" value="Jah" style="edgeStyle=orthogonalEdgeStyle;rounded=0;orthogonalLoop=1;jettySize=auto;html=1;" parent="WIyWlLk6GJQsqaUBKTNV-1" source="spRGdN_NJIrc2kOm7W-H-16" target="spRGdN_NJIrc2kOm7W-H-4" edge="1">
          <mxGeometry relative="1" as="geometry" />
        </mxCell>
        <mxCell id="1x-yw9I9YHsFiI4h4pNt-25" style="edgeStyle=orthogonalEdgeStyle;rounded=0;orthogonalLoop=1;jettySize=auto;html=1;entryX=0;entryY=0.5;entryDx=0;entryDy=0;" parent="WIyWlLk6GJQsqaUBKTNV-1" source="spRGdN_NJIrc2kOm7W-H-16" target="WIyWlLk6GJQsqaUBKTNV-3" edge="1">
          <mxGeometry relative="1" as="geometry">
            <Array as="points">
              <mxPoint x="200" y="135" />
              <mxPoint x="200" y="-390" />
            </Array>
          </mxGeometry>
        </mxCell>
        <mxCell id="1x-yw9I9YHsFiI4h4pNt-26" value="Ei" style="edgeLabel;html=1;align=center;verticalAlign=middle;resizable=0;points=[];" parent="1x-yw9I9YHsFiI4h4pNt-25" vertex="1" connectable="0">
          <mxGeometry x="0.0197" y="-2" relative="1" as="geometry">
            <mxPoint as="offset" />
          </mxGeometry>
        </mxCell>
        <mxCell id="spRGdN_NJIrc2kOm7W-H-16" value="Kas &quot;Get rates&quot; nuppu on vajutatud?" style="rhombus;whiteSpace=wrap;html=1;" parent="WIyWlLk6GJQsqaUBKTNV-1" vertex="1">
          <mxGeometry x="460" y="90" width="130" height="90" as="geometry" />
        </mxCell>
        <mxCell id="1x-yw9I9YHsFiI4h4pNt-24" style="edgeStyle=orthogonalEdgeStyle;rounded=0;orthogonalLoop=1;jettySize=auto;html=1;entryX=1;entryY=0.5;entryDx=0;entryDy=0;exitX=1;exitY=0.5;exitDx=0;exitDy=0;" parent="WIyWlLk6GJQsqaUBKTNV-1" source="1x-yw9I9YHsFiI4h4pNt-9" target="WIyWlLk6GJQsqaUBKTNV-3" edge="1">
          <mxGeometry relative="1" as="geometry">
            <Array as="points">
              <mxPoint x="680" y="-90" />
              <mxPoint x="860" y="-90" />
              <mxPoint x="860" y="-390" />
            </Array>
          </mxGeometry>
        </mxCell>
        <mxCell id="1x-yw9I9YHsFiI4h4pNt-9" value="MessageBox-i tuleb error" style="rounded=1;whiteSpace=wrap;html=1;fontSize=12;glass=0;strokeWidth=1;shadow=0;" parent="WIyWlLk6GJQsqaUBKTNV-1" vertex="1">
          <mxGeometry x="560" y="-120" width="120" height="40" as="geometry" />
        </mxCell>
        <mxCell id="1x-yw9I9YHsFiI4h4pNt-12" style="edgeStyle=orthogonalEdgeStyle;rounded=0;orthogonalLoop=1;jettySize=auto;html=1;entryX=0.45;entryY=1.075;entryDx=0;entryDy=0;entryPerimeter=0;" parent="WIyWlLk6GJQsqaUBKTNV-1" source="WIyWlLk6GJQsqaUBKTNV-10" target="1x-yw9I9YHsFiI4h4pNt-9" edge="1">
          <mxGeometry relative="1" as="geometry" />
        </mxCell>
        <mxCell id="1x-yw9I9YHsFiI4h4pNt-17" value="Ei" style="edgeLabel;html=1;align=center;verticalAlign=middle;resizable=0;points=[];" parent="1x-yw9I9YHsFiI4h4pNt-12" vertex="1" connectable="0">
          <mxGeometry x="-0.2482" y="2" relative="1" as="geometry">
            <mxPoint as="offset" />
          </mxGeometry>
        </mxCell>
        <mxCell id="1x-yw9I9YHsFiI4h4pNt-20" value="LÃµpp" style="rounded=1;whiteSpace=wrap;html=1;" parent="WIyWlLk6GJQsqaUBKTNV-1" vertex="1">
          <mxGeometry x="255" y="690" width="160" height="60" as="geometry" />
        </mxCell>
      </root>
    </mxGraphModel>
  </diagram>
</mxfile>
